<svg width="38" height="38" viewBox="0 0 38 38" fill="none" xmlns="http://www.w3.org/2000/svg">
<path d="M2.33496 18.9983H25.6683M25.6683 18.9983L19.835 13.9983M25.6683 18.9983L19.835 23.9983" stroke="#4A5A6F" stroke-width="3" stroke-linecap="round" stroke-linejoin="round" style="mix-blend-mode:plus-darker"/>
<path opacity="0.5" d="M14.0034 10.6666C14.0234 7.04159 14.1851 5.07825 15.4651 3.79825C16.9301 2.33325 19.2868 2.33325 24.0001 2.33325H25.6668C30.3818 2.33325 32.7384 2.33325 34.2034 3.79825C35.6668 5.26159 35.6668 7.61992 35.6668 12.3333V25.6666C35.6668 30.3799 35.6668 32.7383 34.2034 34.2016C32.7368 35.6666 30.3818 35.6666 25.6668 35.6666H24.0001C19.2868 35.6666 16.9301 35.6666 15.4651 34.2016C14.1851 32.9216 14.0234 30.9583 14.0034 27.3333" stroke="#1D59AA" stroke-width="3" stroke-linecap="round"/>
</svg>
