<svg width="40" height="40" viewBox="0 0 40 40" fill="none" xmlns="http://www.w3.org/2000/svg">
<path opacity="0.5" d="M15.9869 5.33324C15.7238 5.56933 15.4485 5.79131 15.1619 5.99824C14.6652 6.33157 14.1069 6.56157 13.5202 6.67824C13.2652 6.72824 12.9986 6.74991 12.4669 6.79157C11.1319 6.89824 10.4636 6.95157 9.9069 7.14824C9.27022 7.37265 8.69195 7.73692 8.2146 8.21427C7.73725 8.69162 7.37298 9.26989 7.14857 9.90657C6.9519 10.4632 6.89857 11.1316 6.7919 12.4666C6.77276 12.8194 6.73493 13.171 6.67857 13.5199C6.5619 14.1066 6.3319 14.6649 5.99857 15.1616C5.85357 15.3782 5.68023 15.5816 5.33357 15.9866C4.46523 17.0066 4.03023 17.5166 3.77523 18.0499C3.1869 19.2832 3.1869 20.7166 3.77523 21.9499C4.03023 22.4832 4.46523 22.9932 5.33357 24.0132C5.68023 24.4182 5.85357 24.6216 5.99857 24.8382C6.3319 25.3349 6.5619 25.8932 6.67857 26.4799C6.72857 26.7349 6.75023 27.0016 6.7919 27.5332C6.89857 28.8682 6.9519 29.5366 7.14857 30.0932C7.37298 30.7299 7.73725 31.3082 8.2146 31.7855C8.69195 32.2629 9.27022 32.6272 9.9069 32.8516C10.4636 33.0482 11.1319 33.1016 12.4669 33.2082C12.9986 33.2499 13.2652 33.2716 13.5202 33.3216C14.1069 33.4382 14.6652 33.6699 15.1619 34.0016C15.3786 34.1466 15.5819 34.3199 15.9869 34.6666C17.0069 35.5349 17.5169 35.9699 18.0502 36.2249C19.2836 36.8132 20.7169 36.8132 21.9502 36.2249C22.4836 35.9699 22.9936 35.5349 24.0136 34.6666C24.4186 34.3199 24.6219 34.1466 24.8386 34.0016C25.3352 33.6682 25.8936 33.4382 26.4802 33.3216C26.7352 33.2716 27.0019 33.2499 27.5336 33.2082C28.8686 33.1016 29.5369 33.0482 30.0936 32.8516C30.7302 32.6272 31.3085 32.2629 31.7859 31.7855C32.2632 31.3082 32.6275 30.7299 32.8519 30.0932C33.0486 29.5366 33.1019 28.8682 33.2086 27.5332C33.2502 27.0016 33.2719 26.7349 33.3219 26.4799C33.4386 25.8932 33.6702 25.3349 34.0019 24.8382C34.1469 24.6216 34.3202 24.4182 34.6669 24.0132C35.5352 22.9932 35.9702 22.4832 36.2252 21.9499C36.8136 20.7166 36.8136 19.2832 36.2252 18.0499C35.9702 17.5166 35.5352 17.0066 34.6669 15.9866C34.4308 15.7235 34.2088 15.4481 34.0019 15.1616C33.6684 14.665 33.4372 14.1069 33.3219 13.5199C33.2655 13.171 33.2277 12.8194 33.2086 12.4666C33.1019 11.1316 33.0486 10.4632 32.8519 9.90657C32.6275 9.26989 32.2632 8.69162 31.7859 8.21427C31.3085 7.73692 30.7302 7.37265 30.0936 7.14824C29.5369 6.95157 28.8686 6.89824 27.5336 6.79157C27.1807 6.77243 26.8291 6.7346 26.4802 6.67824C25.8933 6.56294 25.3352 6.33177 24.8386 5.99824C24.552 5.79131 24.2766 5.56933 24.0136 5.33324C22.9936 4.46491 22.4836 4.02991 21.9502 3.77491C21.3415 3.48352 20.6751 3.33228 20.0002 3.33228C19.3253 3.33228 18.659 3.48352 18.0502 3.77491C17.5169 4.02991 17.0069 4.46491 15.9869 5.33324Z" fill="#1D59AA"/>
<path d="M27.2899 16.4383C27.5371 16.1824 27.6739 15.8397 27.6709 15.4839C27.6678 15.1282 27.5252 14.7878 27.2736 14.5363C27.022 14.2847 26.6817 14.142 26.3259 14.139C25.9702 14.1359 25.6274 14.2727 25.3716 14.5199L17.2883 22.6033L14.6299 19.9449C14.3741 19.6977 14.0313 19.5609 13.6756 19.564C13.3198 19.567 12.9795 19.7097 12.7279 19.9613C12.4764 20.2128 12.3337 20.5532 12.3306 20.9089C12.3276 21.2647 12.4644 21.6074 12.7116 21.8633L16.3283 25.4799C16.5826 25.7338 16.9273 25.8763 17.2866 25.8763C17.6459 25.8763 17.9906 25.7338 18.2449 25.4799L27.2899 16.4383Z" fill="#4A5A6F" style="mix-blend-mode:plus-darker"/>
</svg>
