<svg width="40" height="40" viewBox="0 0 40 40" fill="none" xmlns="http://www.w3.org/2000/svg">
<path opacity="0.5" d="M5 17.3618C5 12.0318 5 9.36683 5.63 8.47016C6.25833 7.57516 8.76333 6.71683 13.775 5.00183L14.73 4.67516C17.3417 3.78016 18.6467 3.3335 20 3.3335C21.3533 3.3335 22.6583 3.78016 25.27 4.67516L26.225 5.00183C31.2367 6.71683 33.7417 7.57516 34.37 8.47016C35 9.36683 35 12.0335 35 17.3618V19.9852C35 29.3818 27.935 33.9435 23.5017 35.8785C22.3 36.4035 21.7 36.6668 20 36.6668C18.3 36.6668 17.7 36.4035 16.4983 35.8785C12.065 33.9418 5 29.3835 5 19.9852V17.3618Z" stroke="#1D59AA" stroke-width="3"/>
<path d="M15.8334 20.667L18.215 23.3337L24.1667 16.667" stroke="#4A5A6F" stroke-width="3" stroke-linecap="round" stroke-linejoin="round" style="mix-blend-mode:plus-darker"/>
</svg>
