<svg width="41" height="40" viewBox="0 0 41 40" fill="none" xmlns="http://www.w3.org/2000/svg">
<path d="M6.42998 15.4883C5.94165 15.9767 5.94165 16.7617 5.94165 18.3333V28.3333C5.94165 29.905 5.94165 30.69 6.42998 31.1783C6.91832 31.6667 7.70332 31.6667 9.27498 31.6667C10.8467 31.6667 11.6317 31.6667 12.12 31.1783C12.6083 30.69 12.6083 29.905 12.6083 28.3333V18.3333C12.6083 16.7617 12.6083 15.9767 12.12 15.4883C11.6317 15 10.8467 15 9.27498 15C7.70332 15 6.91832 15 6.42998 15.4883Z" fill="#1D59AA"/>
<path opacity="0.4" d="M29.7634 3.82183C29.275 4.31016 29.275 5.09516 29.275 6.66683V28.3335C29.275 29.9052 29.275 30.6902 29.7634 31.1785C30.2517 31.6668 31.0367 31.6668 32.6084 31.6668C34.18 31.6668 34.965 31.6668 35.4534 31.1785C35.9417 30.6902 35.9417 29.9052 35.9417 28.3335V6.66683C35.9417 5.09516 35.9417 4.31016 35.4534 3.82183C34.965 3.3335 34.18 3.3335 32.6084 3.3335C31.0367 3.3335 30.2517 3.3335 29.7634 3.82183Z" fill="#1D59AA"/>
<path opacity="0.7" d="M17.6083 11.6668C17.6083 10.0952 17.6083 9.31016 18.0966 8.82183C18.5849 8.3335 19.3699 8.3335 20.9416 8.3335C22.5133 8.3335 23.2983 8.3335 23.7866 8.82183C24.2749 9.31016 24.2749 10.0952 24.2749 11.6668V28.3335C24.2749 29.9052 24.2749 30.6902 23.7866 31.1785C23.2983 31.6668 22.5133 31.6668 20.9416 31.6668C19.3699 31.6668 18.5849 31.6668 18.0966 31.1785C17.6083 30.6902 17.6083 29.9052 17.6083 28.3335V11.6668Z" fill="#1D59AA"/>
<path d="M5.94165 35.4165C5.61013 35.4165 5.29219 35.5482 5.05777 35.7826C4.82335 36.017 4.69165 36.335 4.69165 36.6665C4.69165 36.998 4.82335 37.316 5.05777 37.5504C5.29219 37.7848 5.61013 37.9165 5.94165 37.9165H35.9416C36.2732 37.9165 36.5911 37.7848 36.8255 37.5504C37.06 37.316 37.1916 36.998 37.1916 36.6665C37.1916 36.335 37.06 36.017 36.8255 35.7826C36.5911 35.5482 36.2732 35.4165 35.9416 35.4165H5.94165Z" fill="#4A5A6F" style="mix-blend-mode:plus-darker"/>
</svg>
