<svg width="40" height="40" viewBox="0 0 40 40" fill="none" xmlns="http://www.w3.org/2000/svg">
<path d="M12.5102 25.442C12.5539 25.6002 12.6285 25.7483 12.7294 25.8778C12.8304 26.0072 12.956 26.1155 13.0988 26.1964C13.2416 26.2774 13.399 26.3294 13.562 26.3495C13.7249 26.3696 13.8903 26.3574 14.0485 26.3137C14.2067 26.2699 14.3548 26.1954 14.4843 26.0944C14.6137 25.9934 14.722 25.8679 14.8029 25.725C14.8839 25.5822 14.9359 25.4248 14.956 25.2618C14.9761 25.0989 14.9639 24.9336 14.9202 24.7753L12.5102 25.442ZM5.3335 7.87533C5.17463 7.82893 5.00813 7.81454 4.84366 7.83299C4.67919 7.85144 4.52002 7.90237 4.37539 7.98283C4.23076 8.06328 4.10354 8.17165 4.00112 8.30166C3.89871 8.43167 3.82312 8.58072 3.77877 8.74017C3.73441 8.89962 3.72215 9.06629 3.74272 9.23051C3.76328 9.39473 3.81625 9.55323 3.89856 9.69682C3.98086 9.8404 4.09086 9.96622 4.22217 10.067C4.35348 10.1677 4.50349 10.2414 4.6635 10.2837L5.3335 7.87533ZM33.6468 26.2087C33.8096 26.171 33.9632 26.1012 34.0985 26.0032C34.2338 25.9052 34.348 25.781 34.4346 25.6381C34.5211 25.4952 34.5781 25.3364 34.6022 25.1711C34.6263 25.0058 34.617 24.8373 34.5749 24.6757C34.5327 24.514 34.4587 24.3624 34.357 24.2299C34.2553 24.0974 34.128 23.9865 33.9828 23.904C33.8376 23.8215 33.6772 23.7689 33.5113 23.7494C33.3454 23.7298 33.1773 23.7438 33.0168 23.7903L33.6468 26.2087ZM16.9952 29.2653C17.5118 31.132 16.3785 33.1037 14.3718 33.6253L15.0002 36.0437C18.2952 35.1887 20.3085 31.8737 19.4052 28.5987L16.9952 29.2653ZM14.3718 33.6253C12.3518 34.1503 10.3252 32.977 9.80516 31.0937L7.39516 31.7603C8.29516 35.0187 11.7185 36.897 15.0002 36.0437L14.3718 33.6253ZM9.80516 31.0937C9.2885 29.227 10.4218 27.2553 12.4285 26.7337L11.8002 24.317C8.50516 25.172 6.49016 28.4853 7.39516 31.7603L9.80516 31.0937ZM12.4285 26.7337C14.4485 26.2087 16.4752 27.382 16.9952 29.2653L19.4052 28.5987C18.5052 25.3403 15.0818 23.462 11.8002 24.3153L12.4285 26.7337ZM14.9202 24.7753L11.3335 11.792L8.9235 12.4587L12.5102 25.442L14.9202 24.7753ZM8.1735 8.662L5.3335 7.87533L4.6635 10.2837L7.50516 11.072L8.1735 8.662ZM11.3335 11.792C11.1216 11.042 10.7192 10.3595 10.1655 9.81107C9.61175 9.2626 8.92551 8.86674 8.1735 8.662L7.5085 11.072C8.21683 11.2687 8.7435 11.807 8.9235 12.4587L11.3335 11.792ZM18.5168 30.142L33.6468 26.2087L33.0185 23.7903L17.8868 27.7237L18.5168 30.142Z" fill="#4A5A6F" style="mix-blend-mode:plus-darker"/>
<path opacity="0.5" d="M15.9418 14.5502C15.1335 11.6252 14.7301 10.1618 15.4168 9.01016C16.1018 7.85682 17.6101 7.46516 20.6268 6.68016L23.8268 5.85016C26.8435 5.06682 28.3518 4.67349 29.5401 5.33849C30.7285 6.00516 31.1335 7.46682 31.9401 10.3935L32.7985 13.4968C33.6068 16.4218 34.0118 17.8852 33.3251 19.0385C32.6385 20.1902 31.1301 20.5835 28.1135 21.3668L24.9135 22.1985C21.8968 22.9818 20.3885 23.3735 19.2001 22.7085C18.0118 22.0418 17.6085 20.5802 16.8001 17.6552L15.9418 14.5502Z" stroke="#1D59AA" stroke-width="3"/>
</svg>
