<svg width="32" height="32" viewBox="0 0 32 32" fill="none" xmlns="http://www.w3.org/2000/svg">
<path opacity="0.5" d="M27.3813 27.3812C29.3333 25.4265 29.3333 22.2852 29.3333 15.9998C29.3333 9.7145 29.3333 6.57184 27.38 4.6185C25.4293 2.6665 22.2853 2.6665 16 2.6665C9.71463 2.6665 6.57196 2.6665 4.61863 4.6185C2.66663 6.57317 2.66663 9.7145 2.66663 15.9998C2.66663 22.2852 2.66663 25.4278 4.61863 27.3798C6.57329 29.3332 9.71463 29.3332 16 29.3332C22.2853 29.3332 25.428 29.3332 27.38 27.3798" fill="#1D59AA"/>
<path d="M23.2734 9.20419C23.378 9.28379 23.4659 9.38323 23.532 9.49684C23.5982 9.61045 23.6413 9.73598 23.6589 9.86626C23.6765 9.99654 23.6682 10.129 23.6345 10.2561C23.6009 10.3832 23.5425 10.5024 23.4627 10.6069L14.3187 22.6069C14.2287 22.7247 14.1137 22.821 13.9819 22.8889C13.8501 22.9567 13.7049 22.9945 13.5567 22.9993C13.4086 23.0042 13.2612 22.976 13.1252 22.9169C12.9893 22.8578 12.8682 22.7692 12.7707 22.6575L8.58004 17.8575C8.4906 17.7591 8.42169 17.6438 8.37736 17.5184C8.33303 17.393 8.31417 17.26 8.32187 17.1272C8.32957 16.9944 8.36368 16.8645 8.42221 16.745C8.48074 16.6256 8.5625 16.519 8.66272 16.4316C8.76294 16.3441 8.8796 16.2776 9.00587 16.2358C9.13214 16.194 9.26548 16.1778 9.39808 16.1881C9.53069 16.1985 9.65989 16.2352 9.77813 16.2961C9.89638 16.357 10.0013 16.4409 10.0867 16.5429L13.4707 20.4189L21.8707 9.39485C21.9502 9.29013 22.0496 9.20211 22.1631 9.13584C22.2767 9.06956 22.4022 9.02633 22.5325 9.00862C22.6628 8.99091 22.7953 8.99907 22.9224 9.03263C23.0495 9.06619 23.1688 9.12448 23.2734 9.20419Z" fill="#4A5A6F" style="mix-blend-mode:plus-darker"/>
</svg>
