<svg width="40" height="40" viewBox="0 0 40 40" fill="none" xmlns="http://www.w3.org/2000/svg">
<path fill-rule="evenodd" clip-rule="evenodd" d="M5.77337 5.77301C3.33337 8.21634 3.33337 12.143 3.33337 19.9997C3.33337 27.8563 3.33337 31.7847 5.77337 34.2247C8.21671 36.6663 12.1434 36.6663 20 36.6663C27.8567 36.6663 31.785 36.6663 34.225 34.2247C36.6667 31.7863 36.6667 27.8563 36.6667 19.9997C36.6667 12.143 36.6667 8.21467 34.225 5.77301C31.7867 3.33301 27.8567 3.33301 20 3.33301C12.1434 3.33301 8.21504 3.33301 5.77337 5.77301ZM12.0834 19.9997C12.0834 17.9 12.9174 15.8864 14.4021 14.4017C15.8868 12.9171 17.9004 12.083 20 12.083C22.0997 12.083 24.1133 12.9171 25.598 14.4017C27.0826 15.8864 27.9167 17.9 27.9167 19.9997C27.9167 22.0993 27.0826 24.1129 25.598 25.5976C24.1133 27.0823 22.0997 27.9163 20 27.9163C17.9004 27.9163 15.8868 27.0823 14.4021 25.5976C12.9174 24.1129 12.0834 22.0993 12.0834 19.9997ZM14.5834 19.9997C14.5834 18.5631 15.1541 17.1853 16.1699 16.1695C17.1857 15.1537 18.5635 14.583 20 14.583C21.4366 14.583 22.8144 15.1537 23.8302 16.1695C24.846 17.1853 25.4167 18.5631 25.4167 19.9997C25.4167 21.4363 24.846 22.814 23.8302 23.8298C22.8144 24.8457 21.4366 25.4163 20 25.4163C18.5635 25.4163 17.1857 24.8457 16.1699 23.8298C15.1541 22.814 14.5834 21.4363 14.5834 19.9997Z" fill="#4A5A6F" style="mix-blend-mode:plus-darker"/>
</svg>
