<svg width="159" height="32" viewBox="0 0 159 32" fill="none" xmlns="http://www.w3.org/2000/svg">
<path d="M8.384 25.5V6.748H1.28V3.1H19.456V6.748H12.352V25.5H8.384ZM20.5495 25.5V8.604H24.4215V12.412C25.6055 9.532 27.5895 8.156 30.4055 8.284V12.38H30.1815C28.4215 12.38 27.0135 12.956 25.9895 14.108C24.9335 15.26 24.4215 16.892 24.4215 19.068V25.5H20.5495ZM46.8118 25.5H42.9718V23.42C41.5958 25.052 39.7718 25.852 37.4998 25.852C35.8038 25.852 34.3638 25.404 33.2118 24.476C32.0598 23.548 31.4838 22.236 31.4838 20.572C31.4838 18.78 32.0918 17.404 33.3718 16.444C34.6198 15.516 36.2838 15.036 38.3318 15.036C39.9638 15.036 41.5318 15.292 43.0038 15.74V15.42C43.0038 14.268 42.6198 13.372 41.9158 12.732C41.2118 12.124 40.1878 11.804 38.8438 11.804C37.3078 11.804 35.6758 12.156 34.0118 12.86L32.9558 9.756C35.0358 8.828 37.1798 8.348 39.3878 8.348C41.8198 8.348 43.6758 8.988 44.9238 10.204C46.1718 11.452 46.8118 13.212 46.8118 15.484V25.5ZM43.0678 19.388V18.428C41.9158 17.98 40.6038 17.756 39.1958 17.756C37.9798 17.756 37.0198 18.012 36.3478 18.46C35.6438 18.94 35.3238 19.612 35.3238 20.444C35.3238 21.212 35.6118 21.82 36.2518 22.268C36.8598 22.716 37.6278 22.94 38.5878 22.94C39.8678 22.94 40.9558 22.62 41.7878 21.948C42.6198 21.308 43.0678 20.444 43.0678 19.388ZM51.097 25.5V8.604H54.969V11.228C56.313 9.244 58.073 8.252 60.249 8.252C62.105 8.252 63.577 8.86 64.665 10.012C65.721 11.196 66.265 12.764 66.265 14.748V25.5H62.393V15.9C62.393 14.588 62.073 13.564 61.433 12.86C60.793 12.156 59.929 11.772 58.777 11.772C57.625 11.772 56.729 12.156 56.025 12.892C55.321 13.66 54.969 14.684 54.969 15.964V25.5H51.097ZM76.4128 25.82C73.7568 25.82 71.3568 24.988 69.2448 23.292L70.9728 20.668C72.7968 22.076 74.6528 22.748 76.5088 22.748C77.3408 22.748 77.9808 22.588 78.4288 22.268C78.8768 21.948 79.1328 21.468 79.1328 20.86C79.1328 20.572 79.0368 20.316 78.8768 20.092C78.7168 19.868 78.4288 19.644 78.0448 19.452C77.6288 19.26 77.2768 19.132 77.0208 19.036C76.7328 18.972 76.2848 18.812 75.6448 18.62L75.3568 18.524C74.7488 18.364 74.2368 18.204 73.8208 18.044C73.4048 17.884 72.9568 17.66 72.4448 17.372C71.9328 17.116 71.5168 16.796 71.1968 16.476C70.8768 16.156 70.5888 15.708 70.3968 15.196C70.1728 14.684 70.0768 14.108 70.0768 13.468C70.0768 11.932 70.6208 10.684 71.7728 9.724C72.9248 8.796 74.3648 8.316 76.0928 8.316C78.2688 8.316 80.3488 8.956 82.3008 10.236L80.7648 12.988C79.0048 11.932 77.4048 11.388 75.9968 11.388C75.2288 11.388 74.6528 11.548 74.2368 11.868C73.8208 12.188 73.6288 12.636 73.6288 13.148C73.6288 13.532 73.7888 13.852 74.1728 14.14C74.5568 14.46 74.9088 14.684 75.2928 14.812C75.6768 14.94 76.2848 15.164 77.1168 15.42C77.1488 15.452 77.2128 15.484 77.2768 15.484C77.3408 15.516 77.3728 15.516 77.4368 15.516C78.1728 15.772 78.8128 15.996 79.3248 16.22C79.8368 16.444 80.3488 16.732 80.9248 17.116C81.5008 17.5 81.9168 17.98 82.2368 18.556C82.5248 19.132 82.6848 19.772 82.6848 20.508C82.6848 22.236 82.0768 23.548 80.9248 24.444C79.7408 25.372 78.2368 25.82 76.4128 25.82ZM97.3728 25.884C93.9168 25.884 91.1008 24.796 88.9568 22.62C86.8128 20.444 85.7568 17.66 85.7568 14.3C85.7568 11.1 86.8448 8.38 89.0208 6.108C91.1968 3.868 93.9808 2.716 97.3088 2.716C99.1648 2.716 100.765 2.972 102.109 3.484C103.421 3.996 104.701 4.732 105.917 5.756L103.421 8.732C102.461 7.932 101.533 7.324 100.573 6.94C99.6128 6.556 98.4928 6.332 97.1488 6.332C95.1008 6.332 93.3728 7.132 91.9648 8.668C90.5568 10.236 89.8848 12.124 89.8848 14.3C89.8848 16.636 90.5888 18.556 91.9968 20.06C93.4048 21.564 95.2288 22.3 97.5008 22.3C99.5808 22.3 101.373 21.756 102.909 20.604V16.412H97.1808V12.988H106.717V22.396C103.997 24.732 100.893 25.884 97.3728 25.884ZM111.075 25.5V8.604H114.947V12.412C116.131 9.532 118.115 8.156 120.931 8.284V12.38H120.707C118.947 12.38 117.539 12.956 116.515 14.108C115.459 15.26 114.947 16.892 114.947 19.068V25.5H111.075ZM129.797 25.852C127.909 25.852 126.437 25.276 125.381 24.092C124.293 22.94 123.781 21.34 123.781 19.356V8.604H127.653V18.204C127.653 19.548 127.941 20.572 128.581 21.276C129.221 21.98 130.117 22.332 131.269 22.332C132.389 22.332 133.317 21.98 134.021 21.212C134.725 20.476 135.077 19.452 135.077 18.14V8.604H138.949V25.5H135.077V22.876C133.733 24.86 131.973 25.852 129.797 25.852ZM142.729 25.5V22.844L152.489 11.772H143.081V8.604H157.417V11.26L147.657 22.332H157.417V25.5H142.729Z" fill="#1D59AA"/>
</svg>
