<svg width="239" height="46" viewBox="0 0 239 46" fill="none" xmlns="http://www.w3.org/2000/svg">
<path d="M12.576 37V8.872H1.92V3.4H29.184V8.872H18.528V37H12.576ZM30.8243 37V11.656H36.6323V17.368C38.4083 13.048 41.3843 10.984 45.6083 11.176V17.32H45.2723C42.6323 17.32 40.5203 18.184 38.9843 19.912C37.4003 21.64 36.6323 24.088 36.6323 27.352V37H30.8243ZM70.2176 37H64.4576V33.88C62.3936 36.328 59.6576 37.528 56.2496 37.528C53.7056 37.528 51.5456 36.856 49.8176 35.464C48.0896 34.072 47.2256 32.104 47.2256 29.608C47.2256 26.92 48.1376 24.856 50.0576 23.416C51.9296 22.024 54.4256 21.304 57.4976 21.304C59.9456 21.304 62.2976 21.688 64.5056 22.36V21.88C64.5056 20.152 63.9296 18.808 62.8736 17.848C61.8176 16.936 60.2816 16.456 58.2656 16.456C55.9616 16.456 53.5136 16.984 51.0176 18.04L49.4336 13.384C52.5536 11.992 55.7696 11.272 59.0816 11.272C62.7296 11.272 65.5136 12.232 67.3856 14.056C69.2576 15.928 70.2176 18.568 70.2176 21.976V37ZM64.6016 27.832V26.392C62.8736 25.72 60.9056 25.384 58.7936 25.384C56.9696 25.384 55.5296 25.768 54.5216 26.44C53.4656 27.16 52.9856 28.168 52.9856 29.416C52.9856 30.568 53.4176 31.48 54.3776 32.152C55.2896 32.824 56.4416 33.16 57.8816 33.16C59.8016 33.16 61.4336 32.68 62.6816 31.672C63.9296 30.712 64.6016 29.416 64.6016 27.832ZM76.6455 37V11.656H82.4535V15.592C84.4695 12.616 87.1095 11.128 90.3735 11.128C93.1575 11.128 95.3655 12.04 96.9975 13.768C98.5815 15.544 99.3975 17.896 99.3975 20.872V37H93.5895V22.6C93.5895 20.632 93.1095 19.096 92.1495 18.04C91.1895 16.984 89.8935 16.408 88.1655 16.408C86.4375 16.408 85.0935 16.984 84.0375 18.088C82.9815 19.24 82.4535 20.776 82.4535 22.696V37H76.6455ZM114.619 37.48C110.635 37.48 107.035 36.232 103.867 33.688L106.459 29.752C109.195 31.864 111.979 32.872 114.763 32.872C116.011 32.872 116.971 32.632 117.643 32.152C118.315 31.672 118.699 30.952 118.699 30.04C118.699 29.608 118.555 29.224 118.315 28.888C118.075 28.552 117.643 28.216 117.067 27.928C116.443 27.64 115.915 27.448 115.531 27.304C115.099 27.208 114.427 26.968 113.467 26.68L113.035 26.536C112.123 26.296 111.355 26.056 110.731 25.816C110.107 25.576 109.435 25.24 108.667 24.808C107.899 24.424 107.275 23.944 106.795 23.464C106.315 22.984 105.883 22.312 105.595 21.544C105.259 20.776 105.115 19.912 105.115 18.952C105.115 16.648 105.931 14.776 107.659 13.336C109.387 11.944 111.547 11.224 114.139 11.224C117.403 11.224 120.523 12.184 123.451 14.104L121.147 18.232C118.507 16.648 116.107 15.832 113.995 15.832C112.843 15.832 111.979 16.072 111.355 16.552C110.731 17.032 110.443 17.704 110.443 18.472C110.443 19.048 110.683 19.528 111.259 19.96C111.835 20.44 112.363 20.776 112.939 20.968C113.515 21.16 114.427 21.496 115.675 21.88C115.723 21.928 115.819 21.976 115.915 21.976C116.011 22.024 116.059 22.024 116.155 22.024C117.259 22.408 118.219 22.744 118.987 23.08C119.755 23.416 120.523 23.848 121.387 24.424C122.251 25 122.875 25.72 123.355 26.584C123.787 27.448 124.027 28.408 124.027 29.512C124.027 32.104 123.115 34.072 121.387 35.416C119.611 36.808 117.355 37.48 114.619 37.48ZM146.059 37.576C140.875 37.576 136.651 35.944 133.435 32.68C130.219 29.416 128.635 25.24 128.635 20.2C128.635 15.4 130.267 11.32 133.531 7.912C136.795 4.552 140.971 2.824 145.963 2.824C148.747 2.824 151.147 3.208 153.163 3.976C155.131 4.744 157.051 5.848 158.875 7.384L155.131 11.848C153.691 10.648 152.299 9.736 150.859 9.16C149.419 8.584 147.739 8.248 145.723 8.248C142.651 8.248 140.059 9.448 137.947 11.752C135.835 14.104 134.827 16.936 134.827 20.2C134.827 23.704 135.883 26.584 137.995 28.84C140.107 31.096 142.843 32.2 146.251 32.2C149.371 32.2 152.059 31.384 154.363 29.656V23.368H145.771V18.232H160.075V32.344C155.995 35.848 151.339 37.576 146.059 37.576ZM166.612 37V11.656H172.42V17.368C174.196 13.048 177.172 10.984 181.396 11.176V17.32H181.06C178.42 17.32 176.308 18.184 174.772 19.912C173.188 21.64 172.42 24.088 172.42 27.352V37H166.612ZM194.696 37.528C191.864 37.528 189.656 36.664 188.072 34.888C186.44 33.16 185.672 30.76 185.672 27.784V11.656H191.48V26.056C191.48 28.072 191.912 29.608 192.872 30.664C193.832 31.72 195.176 32.248 196.904 32.248C198.584 32.248 199.976 31.72 201.032 30.568C202.088 29.464 202.616 27.928 202.616 25.96V11.656H208.424V37H202.616V33.064C200.6 36.04 197.96 37.528 194.696 37.528ZM214.094 37V33.016L228.734 16.408H214.622V11.656H236.126V15.64L221.486 32.248H236.126V37H214.094Z" fill="#1D59AA"/>
</svg>
