<svg width="356" height="53" viewBox="0 0 356 53" fill="none" xmlns="http://www.w3.org/2000/svg">
<path d="M15.784 52V11.824H0.448V1.6H42.208V11.824H26.872V52H15.784ZM44.5744 52V13.408H55.5184V21.184C58.0144 15.28 62.1184 12.448 67.8304 12.688V24.136H67.2544C63.5104 24.136 60.6064 25.288 58.5424 27.592C56.5264 29.848 55.5184 33.232 55.5184 37.744V52H44.5744ZM83.0641 52.72C79.2721 52.72 76.1041 51.664 73.5601 49.552C71.0641 47.44 69.8161 44.512 69.8161 40.768C69.8161 36.688 71.2081 33.616 73.9921 31.552C76.8241 29.488 80.6161 28.456 85.3681 28.456C88.5841 28.456 91.7281 28.984 94.8001 30.04V29.392C94.8001 24.688 92.0401 22.336 86.5201 22.336C83.2081 22.336 79.6561 23.032 75.8641 24.424L73.1281 16.072C77.8321 14.008 82.8241 12.976 88.1041 12.976C93.9121 12.976 98.2561 14.416 101.136 17.296C103.92 20.08 105.312 24.184 105.312 29.608V52H94.7281V47.824C91.8001 51.088 87.9121 52.72 83.0641 52.72ZM86.3761 45.16C88.9201 45.16 90.9841 44.536 92.5681 43.288C94.1521 41.992 94.9441 40.36 94.9441 38.392V36.448C92.8801 35.488 90.5521 35.008 87.9601 35.008C85.5601 35.008 83.6881 35.488 82.3441 36.448C81.0481 37.36 80.4001 38.704 80.4001 40.48C80.4001 41.92 80.9521 43.072 82.0561 43.936C83.1601 44.752 84.6001 45.16 86.3761 45.16ZM114.009 52V13.408H124.953V18.88C128.169 14.752 131.937 12.688 136.257 12.688C140.385 12.688 143.601 13.96 145.905 16.504C148.209 19.048 149.361 22.552 149.361 27.016V52H138.417V30.472C138.417 27.928 137.841 25.984 136.689 24.64C135.537 23.296 133.905 22.624 131.793 22.624C129.681 22.624 128.001 23.296 126.753 24.64C125.553 25.984 124.953 27.928 124.953 30.472V52H114.009ZM171.685 52.72C165.589 52.72 160.069 50.776 155.125 46.888L159.805 39.688C164.029 42.76 168.085 44.296 171.973 44.296C175.045 44.296 176.581 43.288 176.581 41.272C176.581 41.032 176.533 40.792 176.437 40.552C176.389 40.312 176.269 40.096 176.077 39.904C175.885 39.712 175.669 39.544 175.429 39.4C175.237 39.208 174.949 39.04 174.565 38.896C174.229 38.704 173.917 38.56 173.629 38.464C173.389 38.32 173.029 38.176 172.549 38.032C172.069 37.84 171.661 37.696 171.325 37.6C170.989 37.504 170.533 37.384 169.957 37.24C169.381 37.048 168.925 36.904 168.589 36.808C166.957 36.328 165.565 35.848 164.413 35.368C163.309 34.84 162.133 34.144 160.885 33.28C159.637 32.368 158.677 31.24 158.005 29.896C157.381 28.504 157.069 26.896 157.069 25.072C157.069 21.28 158.413 18.304 161.101 16.144C163.789 13.936 167.149 12.832 171.181 12.832C176.365 12.832 181.165 14.32 185.581 17.296L181.405 24.856C177.325 22.456 173.845 21.256 170.965 21.256C168.277 21.256 166.933 22.192 166.933 24.064C166.933 25.36 169.141 26.752 173.557 28.24C174.085 28.432 174.493 28.576 174.781 28.672C176.077 29.104 177.181 29.512 178.093 29.896C179.005 30.28 180.037 30.808 181.189 31.48C182.341 32.152 183.253 32.872 183.925 33.64C184.645 34.36 185.245 35.296 185.725 36.448C186.205 37.6 186.445 38.872 186.445 40.264C186.445 44.392 185.077 47.512 182.341 49.624C179.653 51.688 176.101 52.72 171.685 52.72ZM218.985 52.864C211.161 52.864 204.777 50.416 199.833 45.52C194.937 40.624 192.489 34.384 192.489 26.8C192.489 19.552 195.009 13.408 200.049 8.368C205.089 3.28 211.377 0.735999 218.913 0.735999C223.281 0.735999 226.977 1.312 230.001 2.464C233.025 3.568 235.929 5.296 238.713 7.648L231.729 16.072C229.617 14.296 227.577 13 225.609 12.184C223.641 11.368 221.289 10.96 218.553 10.96C214.521 10.96 211.089 12.52 208.257 15.64C205.473 18.712 204.081 22.432 204.081 26.8C204.081 31.408 205.497 35.224 208.329 38.248C211.209 41.272 214.881 42.784 219.345 42.784C223.473 42.784 226.953 41.776 229.785 39.76V32.56H218.625V22.984H240.513V44.872C234.225 50.2 227.049 52.864 218.985 52.864ZM249.31 52V13.408H260.254V21.184C262.75 15.28 266.854 12.448 272.566 12.688V24.136H271.99C268.246 24.136 265.342 25.288 263.278 27.592C261.262 29.848 260.254 33.232 260.254 37.744V52H249.31ZM291.5 52.72C287.372 52.72 284.156 51.448 281.852 48.904C279.548 46.36 278.396 42.856 278.396 38.392V13.408H289.34V34.936C289.34 37.48 289.916 39.424 291.068 40.768C292.22 42.112 293.852 42.784 295.964 42.784C298.076 42.784 299.732 42.112 300.932 40.768C302.18 39.424 302.804 37.48 302.804 34.936V13.408H313.748V52H302.804V46.528C299.588 50.656 295.82 52.72 291.5 52.72ZM321.527 52V44.296L341.471 22.264H322.175V13.408H355.079V21.112L335.063 43.144H355.079V52H321.527Z" fill="#4A5A6F" style="mix-blend-mode:plus-darker"/>
</svg>
