<svg width="200" height="200" viewBox="0 0 200 200" fill="none" xmlns="http://www.w3.org/2000/svg">
<path opacity="0.5" fill-rule="evenodd" clip-rule="evenodd" d="M154.167 116.667C138.058 116.667 125 128.817 125 143.808C125 158.683 134.308 176.042 148.833 182.25C152.217 183.692 156.117 183.692 159.5 182.25C174.025 176.042 183.333 158.683 183.333 143.808C183.333 128.817 170.275 116.667 154.167 116.667ZM45.8333 16.6667C29.725 16.6667 16.6666 28.8167 16.6666 43.8084C16.6666 58.6834 25.975 76.0417 40.5 82.2501C43.8833 83.6917 47.7833 83.6917 51.1666 82.2501C65.6916 76.0417 75 58.6834 75 43.8084C75 28.8167 61.9416 16.6667 45.8333 16.6667Z" fill="#1D59AA"/>
<path d="M162.5 145.833C162.5 148.043 161.622 150.163 160.059 151.726C158.496 153.289 156.377 154.167 154.167 154.167C151.957 154.167 149.837 153.289 148.274 151.726C146.711 150.163 145.833 148.043 145.833 145.833C145.833 143.623 146.711 141.504 148.274 139.941C149.837 138.378 151.957 137.5 154.167 137.5C156.377 137.5 158.496 138.378 160.059 139.941C161.622 141.504 162.5 143.623 162.5 145.833ZM54.1667 45.8333C54.1667 48.0435 53.2887 50.1631 51.7259 51.7259C50.1631 53.2887 48.0435 54.1667 45.8333 54.1667C43.6232 54.1667 41.5036 53.2887 39.9408 51.7259C38.378 50.1631 37.5 48.0435 37.5 45.8333C37.5 43.6232 38.378 41.5036 39.9408 39.9408C41.5036 38.378 43.6232 37.5 45.8333 37.5C48.0435 37.5 50.1631 38.378 51.7259 39.9408C53.2887 41.5036 54.1667 43.6232 54.1667 45.8333Z" fill="#4A5A6F" style="mix-blend-mode:plus-darker"/>
<path fill-rule="evenodd" clip-rule="evenodd" d="M93.75 41.6667C93.75 40.0091 94.4085 38.4194 95.5806 37.2473C96.7527 36.0752 98.3424 35.4167 100 35.4167H134.433C157.358 35.4167 166.075 65.3584 146.733 77.6667L59.9834 132.875C51.1834 138.475 55.15 152.083 65.5667 152.083H84.9084L83.075 150.25C82.4784 149.673 82.0026 148.983 81.6754 148.221C81.3482 147.458 81.1762 146.638 81.1694 145.808C81.1625 144.978 81.3211 144.155 81.6357 143.387C81.9503 142.619 82.4147 141.922 83.0018 141.335C83.5889 140.749 84.287 140.285 85.0552 139.971C85.8234 139.657 86.6465 139.499 87.4764 139.507C88.3062 139.514 89.1263 139.687 89.8887 140.015C90.651 140.343 91.3405 140.82 91.9167 141.417L104.417 153.917C105.587 155.089 106.245 156.677 106.245 158.333C106.245 159.99 105.587 161.578 104.417 162.75L91.9167 175.25C91.3445 175.864 90.6545 176.357 89.8879 176.698C89.1212 177.04 88.2936 177.224 87.4544 177.238C86.6152 177.253 85.7816 177.099 85.0034 176.784C84.2252 176.47 83.5182 176.002 82.9247 175.409C82.3312 174.815 81.8634 174.108 81.549 173.33C81.2347 172.552 81.0803 171.718 81.0951 170.879C81.1099 170.04 81.2936 169.212 81.6352 168.446C81.9768 167.679 82.4693 166.989 83.0834 166.417L84.9167 164.583H65.5584C42.6334 164.583 33.9167 134.642 53.2584 122.333L140.017 67.1251C148.808 61.5251 144.85 47.9167 134.425 47.9167H100C98.3424 47.9167 96.7527 47.2583 95.5806 46.0862C94.4085 44.9141 93.75 43.3244 93.75 41.6667Z" fill="#4A5A6F" style="mix-blend-mode:plus-darker"/>
</svg>
