<svg width="34" height="34" viewBox="0 0 34 34" fill="none" xmlns="http://www.w3.org/2000/svg">
<path d="M28.6667 5.33325L22 11.9999M22 11.9999V6.99992M22 11.9999H27" stroke="#4A5A6F" stroke-width="3" stroke-linecap="round" stroke-linejoin="round" style="mix-blend-mode:plus-darker"/>
<path opacity="0.5" d="M23.075 22.9049L23.8333 22.1049L22.02 20.3832L21.2617 21.1849L23.075 22.9049ZM26.3317 21.7682L29.515 23.6032L30.7633 21.4349L27.5783 19.6015L26.3317 21.7682ZM30.13 27.4015L27.7633 29.8932L29.575 31.6165L31.9417 29.1249L30.13 27.4015ZM26.3383 30.6932C23.9467 30.9282 17.705 30.7282 10.9317 23.5982L9.12 25.3182C16.5017 33.0899 23.5433 33.4832 26.5833 33.1815L26.3383 30.6932ZM10.9317 23.5982C4.47167 16.7965 3.38834 11.0582 3.25334 8.54155L0.756669 8.67655C0.923335 11.7599 2.23 18.0649 9.12 25.3182L10.9317 23.5982ZM13.225 12.5349L13.7017 12.0315L11.89 10.3099L11.4117 10.8132L13.225 12.5349ZM14.0783 5.76488L11.9767 2.79488L9.935 4.23822L12.035 7.20988L14.0783 5.76488ZM4.86167 2.15155L2.24834 4.90822L4.06167 6.62988L6.67834 3.87488L4.86167 2.15155ZM12.3183 11.6732C12.0184 11.3841 11.7156 11.098 11.41 10.8149L11.4067 10.8182L11.4017 10.8232L11.3183 10.9199C11.1551 11.1362 11.0259 11.3762 10.935 11.6315C10.7717 12.0899 10.685 12.6965 10.795 13.4532C11.0117 14.9399 11.9867 16.9382 14.5317 19.6199L16.345 17.8965C13.965 15.3916 13.3783 13.8499 13.2683 13.0899C13.215 12.7232 13.2683 12.5315 13.29 12.4699L13.3033 12.4382L13.2567 12.4999L13.2267 12.5332C13.2267 12.5332 13.2233 12.5332 12.3183 11.6732ZM14.5317 19.6199C17.07 22.2932 18.9867 23.3415 20.4483 23.5799C21.2 23.7015 21.8083 23.6032 22.2683 23.4215C22.5235 23.322 22.7605 23.1813 22.97 23.0049L23.03 22.9482L23.0533 22.9249L23.065 22.9149L23.07 22.9099L23.0717 22.9065C23.0717 22.9065 23.075 22.9049 22.1683 22.0432C21.2617 21.1832 21.2633 21.1816 21.2633 21.1799L21.2667 21.1782L21.27 21.1732L21.2783 21.1649L21.295 21.1482L21.3567 21.0949C21.3733 21.086 21.3711 21.0865 21.35 21.0965C21.3167 21.1099 21.1667 21.1632 20.85 21.1115C20.18 21.0015 18.7333 20.4116 16.345 17.8965L14.5317 19.6199ZM11.9767 2.79488C10.2867 0.404883 6.90667 -0.000116825 4.86334 2.15322L6.67334 3.87488C7.545 2.95822 9.08167 3.02988 9.935 4.23822L11.9767 2.79488ZM3.25334 8.54155C3.21667 7.87488 3.50834 7.20988 4.06167 6.62988L2.24834 4.90822C1.355 5.84822 0.675002 7.15322 0.756669 8.67655L3.25334 8.54155ZM27.7617 29.8949C27.2967 30.3849 26.8117 30.6465 26.3383 30.6932L26.5833 33.1815C27.8283 33.0599 28.8367 32.3949 29.575 31.6165L27.7617 29.8949ZM13.7017 12.0332C15.315 10.3349 15.4283 7.67822 14.0783 5.76655L12.0367 7.20988C12.74 8.20488 12.6317 9.52988 11.89 10.3099L13.7017 12.0332ZM29.515 23.6032C30.8833 24.3916 31.1517 26.3282 30.13 27.4032L31.9417 29.1249C34.1167 26.8349 33.4833 23.0016 30.7633 21.4349L29.515 23.6032ZM23.8333 22.1066C24.475 21.4299 25.4767 21.2782 26.3317 21.7699L27.5783 19.6032C25.7467 18.5499 23.4783 18.8532 22.02 20.3865L23.8333 22.1066Z" fill="#1D59AA"/>
</svg>
