<svg width="40" height="40" viewBox="0 0 40 40" fill="none" xmlns="http://www.w3.org/2000/svg">
<path d="M31.0599 26.1162L33.9199 17.5329C36.4199 10.0362 37.6699 6.2879 35.6899 4.30957C33.7099 2.33124 29.9633 3.57957 22.4649 6.07957L13.8833 8.93957C7.83328 10.9562 4.80828 11.9662 3.94994 13.4446C3.54896 14.1357 3.33777 14.9205 3.33777 15.7196C3.33777 16.5186 3.54896 17.3034 3.94994 17.9946C4.80828 19.4746 7.83328 20.4829 13.8833 22.5012C14.6333 22.7512 15.4783 22.5712 16.0399 22.0162L25.2166 12.9246C25.3372 12.7936 25.4832 12.6884 25.6456 12.6154C25.808 12.5424 25.9836 12.5032 26.1616 12.5C26.3397 12.4968 26.5165 12.5298 26.6814 12.5969C26.8464 12.664 26.996 12.7638 27.1212 12.8904C27.2465 13.017 27.3447 13.1677 27.41 13.3334C27.4754 13.499 27.5064 13.6762 27.5013 13.8542C27.4962 14.0322 27.4551 14.2073 27.3803 14.3689C27.3056 14.5306 27.1989 14.6754 27.0666 14.7946L18.0399 23.7379C17.7393 24.046 17.5298 24.4312 17.4345 24.8509C17.3392 25.2706 17.3618 25.7086 17.4999 26.1162C19.5166 32.1662 20.5266 35.1929 22.0049 36.0529C22.6963 36.4542 23.4814 36.6656 24.2808 36.6656C25.0801 36.6656 25.8653 36.4542 26.5566 36.0529C28.0349 35.1929 29.0416 32.1679 31.0599 26.1162Z" fill="#4A5A6F" style="mix-blend-mode:plus-darker"/>
</svg>
