<svg width="40" height="40" viewBox="0 0 40 40" fill="none" xmlns="http://www.w3.org/2000/svg">
<path d="M35.84 30.6351H32.0367C30.5983 30.6351 30.165 29.4701 27.5867 26.8901C25.3333 24.7184 24.3817 24.4484 23.8117 24.4484C23.0233 24.4484 22.8083 24.6651 22.8083 25.7501V29.1701C22.8083 30.0951 22.5083 30.6367 20.0917 30.6367C17.7472 30.4792 15.4736 29.767 13.4583 28.5587C11.443 27.3503 9.74354 25.6805 8.5 23.6867C5.54836 20.0111 3.49401 15.6981 2.5 11.0901C2.5 10.5201 2.71667 10.0034 3.80333 10.0034H7.60333C8.58 10.0034 8.93167 10.4384 9.315 11.4434C11.16 16.8734 14.3083 21.5967 15.5867 21.5967C16.0767 21.5967 16.29 21.3801 16.29 20.1584V14.5651C16.1283 12.0134 14.7733 11.7984 14.7733 10.8751C14.7905 10.6315 14.9019 10.4042 15.084 10.2414C15.266 10.0786 15.5043 9.99326 15.7483 10.0034H21.7217C22.5383 10.0034 22.8083 10.4101 22.8083 11.3867V18.9367C22.8083 19.7517 23.1583 20.0217 23.405 20.0217C23.895 20.0217 24.2717 19.7517 25.17 18.8551C27.0948 16.5062 28.6679 13.8899 29.84 11.0884C29.9594 10.7517 30.1859 10.4634 30.4849 10.2677C30.7838 10.0721 31.1386 9.97979 31.495 10.0051H35.2967C36.4367 10.0051 36.6783 10.5751 36.4367 11.3884C35.0536 14.4856 33.3427 17.4257 31.3333 20.1584C30.9233 20.7834 30.76 21.1084 31.3333 21.8417C31.71 22.4117 33.0433 23.5251 33.9383 24.5834C35.2417 25.8834 36.3233 27.3867 37.1417 29.0334C37.4683 30.0934 36.925 30.6351 35.84 30.6351Z" fill="#4A5A6F" style="mix-blend-mode:plus-darker"/>
</svg>
